<svg width="50" height="50" viewBox="0 0 50 50" fill="none" xmlns="http://www.w3.org/2000/svg">
	<path
		d="M35.9375 0H14.0625C6.25 0 0 6.25 0 14.0625V35.9375C0 43.75 6.25 50 14.0625 50H35.9375C43.75 50 50 43.75 50 35.9375V14.0625C50 6.25 43.75 0 35.9375 0ZM18.75 39.0625C18.75 40 18.125 40.625 17.1875 40.625H10.9375C10 40.625 9.375 40 9.375 39.0625V20.3125C9.375 19.375 10 18.75 10.9375 18.75H17.1875C18.125 18.75 18.75 19.375 18.75 20.3125V39.0625ZM14.0625 17.1875C11.4062 17.1875 9.375 15.1563 9.375 12.5C9.375 9.84375 11.4062 7.8125 14.0625 7.8125C16.7188 7.8125 18.75 9.84375 18.75 12.5C18.75 15.1563 16.7188 17.1875 14.0625 17.1875ZM40.625 39.0625C40.625 40 40 40.625 39.0625 40.625H34.375C33.4375 40.625 32.8125 40 32.8125 39.0625V33.5938V32.0312V28.9062C32.8125 27.6562 31.7188 26.5625 30.4688 26.5625C29.2187 26.5625 28.125 27.6562 28.125 28.9062V32.0312V33.5938V39.0625C28.125 40 27.5 40.625 26.5625 40.625H21.875C20.9375 40.625 20.3125 40 20.3125 39.0625V20.3125C20.3125 19.375 20.9375 18.75 21.875 18.75H28.125C28.5938 18.75 28.9063 18.9063 29.2188 19.2188C30.1563 18.9063 31.0937 18.75 32.0312 18.75C36.7188 18.75 40.625 22.6562 40.625 27.3438V39.0625Z"
		fill="#0369a1" />
</svg>