<?xml version="1.0" encoding="UTF-8" standalone="no"?>
<!-- Created with Inkscape (http://www.inkscape.org/) -->

<svg
   width="100mm"
   height="100mm"
   viewBox="0 0 100 100"
   version="1.1"
   id="svg11495"
   xml:space="preserve"
   inkscape:version="1.2.2 (732a01da63, 2022-12-09, custom)"
   sodipodi:docname="logo-sql.svg"
   xmlns:inkscape="http://www.inkscape.org/namespaces/inkscape"
   xmlns:sodipodi="http://sodipodi.sourceforge.net/DTD/sodipodi-0.dtd"
   xmlns="http://www.w3.org/2000/svg"
   xmlns:svg="http://www.w3.org/2000/svg"><sodipodi:namedview
     id="namedview11497"
     pagecolor="#ffffff"
     bordercolor="#000000"
     borderopacity="0.25"
     inkscape:showpageshadow="2"
     inkscape:pageopacity="0.0"
     inkscape:pagecheckerboard="0"
     inkscape:deskcolor="#d1d1d1"
     inkscape:document-units="mm"
     showgrid="false"
     inkscape:zoom="1.9855336"
     inkscape:cx="248.5478"
     inkscape:cy="226.38751"
     inkscape:window-width="1245"
     inkscape:window-height="1016"
     inkscape:window-x="26"
     inkscape:window-y="23"
     inkscape:window-maximized="0"
     inkscape:current-layer="g21194"
     showguides="true"><sodipodi:guide
       position="36.803511,77.731751"
       orientation="0,-1"
       id="guide20819"
       inkscape:locked="false" /><sodipodi:guide
       position="24.021391,45.648922"
       orientation="1,0"
       id="guide20821"
       inkscape:locked="false" /><sodipodi:guide
       position="75.794287,77.731751"
       orientation="1,0"
       id="guide20823"
       inkscape:locked="false" /><sodipodi:guide
       position="51.170123,20.846215"
       orientation="0,-1"
       id="guide20825"
       inkscape:locked="false" /></sodipodi:namedview><defs
     id="defs11492"><style
       id="style21292">.cls-1{fill:none;}</style></defs><g
     inkscape:label="Capa 1"
     inkscape:groupmode="layer"
     id="layer1"><path
       sodipodi:type="star"
       style="fill:none;stroke:#f0de00;stroke-width:1.49672451;fill-opacity:0.478;stroke-dasharray:none"
       id="path11796"
       inkscape:flatsided="true"
       sodipodi:sides="8"
       sodipodi:cx="0"
       sodipodi:cy="0"
       sodipodi:r1="141.42136"
       sodipodi:r2="130.6563"
       sodipodi:arg1="0.78539816"
       sodipodi:arg2="1.1780972"
       inkscape:rounded="0"
       inkscape:randomized="0"
       d="M 100,100 4.8047176e-7,141.42136 -100,100 -141.42136,4.804718e-7 -100,-100 -4.8047181e-7,-141.42136 100,-100 141.42136,-4.8047182e-7 Z"
       transform="matrix(0.35354981,0,0,0.35354981,50,50)" /><g
       id="g21194"
       transform="matrix(2.5804644,0,0,2.0316263,8.4431278,18.204996)"><path
         d="m 7.8231023,22.156794 c 0.8436079,0.321721 2.4524337,0.894786 3.3388977,1.066135 1.594041,0.308368 3.214421,0.460091 4.838,0.453 1.623546,0.0074 3.243926,-0.143967 4.838,-0.452 0.886461,-0.171364 2.668158,-0.84845 3.511771,-1.170157 1.864,-0.727 1.613229,-1.887237 1.613229,-2.352237 v -3.39 c -0.538683,0.324146 -1.104871,0.600213 -1.692,0.825 -2.654227,0.93976 -5.455791,1.394663 -8.271,1.343 -2.815512,0.05006 -5.617085,-0.406539 -8.271,-1.348 -0.5868779,-0.225365 -1.1530163,-0.501408 -1.692,-0.825 v 3.393 c 0,0.466 -0.075898,1.727259 1.7861023,2.457259 z"
         style="fill:#f0de00;fill-opacity:0.478"
         id="path21178"
         sodipodi:nodetypes="cccccscccccsc" /><path
         d="m 16.011273,30.146723 c 5.5,0 9.963,-1.744 9.963,-3.894 v -2.837 a 10.5,10.5 0 0 1 -1.535,0.762 l -0.157,0.063 a 23.487,23.487 0 0 1 -8.271,1.351 23.422,23.422 0 0 1 -8.2710002,-1.351 c -0.054,-0.02 -0.106,-0.043 -0.157,-0.063 a 10.5,10.5 0 0 1 -1.535,-0.762 v 2.837 c 0,2.15 4.4630002,3.894 9.9630002,3.894 z"
         style="fill:#f0de00;fill-opacity:0.478"
         id="path21180" /><ellipse
         cx="16"
         cy="5.8940001"
         rx="9.9630003"
         ry="3.8940001"
         style="fill:#f0de00;fill-opacity:0.478"
         id="ellipse21182" /><path
         d="m 7.8235335,15.230444 c 0.8436079,0.321721 2.4524335,0.894786 3.3388975,1.066135 1.594041,0.308368 3.214421,0.460091 4.838,0.453 1.623546,0.0074 3.243926,-0.143967 4.838,-0.452 0.886461,-0.171364 2.668158,-0.84845 3.511771,-1.170157 1.864,-0.727 1.613229,-1.887237 1.613229,-2.352237 V 9.3851862 c -0.538683,0.3241456 -1.104871,0.6002122 -1.692,0.8249988 -2.654227,0.93976 -5.455791,1.394663 -8.271,1.343 -2.815512,0.05006 -5.617085,-0.406539 -8.2709998,-1.348 -0.5868779,-0.2253646 -1.1530163,-0.5014072 -1.692,-0.8249988 v 3.3929988 c 0,0.466 -0.075898,1.727259 1.7861023,2.457259 z"
         style="fill:#f0de00;fill-opacity:0.478"
         id="path21274"
         sodipodi:nodetypes="cccccscccccsc" /></g></g></svg>
