<svg width="107" height="76" viewBox="0 0 107 76" fill="none" xmlns="http://www.w3.org/2000/svg">
<path d="M79.7127 0C79.1251 0 78.5871 0.483902 78.5871 1.15716V22.3016L73.9239 19.5064C73.632 19.3294 73.303 19.2434 72.9737 19.2434C72.6444 19.2434 72.3154 19.3294 72.0235 19.5064L60.8187 26.2239C60.2349 26.5701 59.8759 27.2109 59.8759 27.8995V41.3496C59.8759 42.0421 60.2349 42.6789 60.8187 43.0252L72.0235 49.7427C72.3154 49.9197 72.6444 50.0057 72.9737 50.0057C73.303 50.0057 73.632 49.9197 73.9239 49.7427L85.1287 43.0252C85.7125 42.6789 86.0716 42.0382 86.0716 41.3496V34.6245V27.8995V4.73382C86.0716 4.04903 85.7159 3.41947 85.1433 3.07323L80.2682 0.157794C80.0848 0.0500733 79.8998 0 79.7127 0ZM43.0358 19.2434C42.7074 19.2434 42.3794 19.3313 42.0856 19.5064L30.8808 26.2239C30.297 26.5701 29.9379 27.2109 29.9379 27.8995V41.3496C29.9379 42.0421 30.297 42.6789 30.8808 43.0252L42.0856 49.7427C42.6731 50.0928 43.3984 50.0928 43.986 49.7427L55.1908 43.0252C55.7745 42.6789 56.1336 42.0382 56.1336 41.3496V27.8995C56.1336 27.207 55.7746 26.5701 55.1908 26.2239L43.986 19.5064C43.6922 19.3313 43.3642 19.2434 43.0358 19.2434ZM102.912 19.2434C102.582 19.2434 102.253 19.3294 101.961 19.5064L90.7567 26.2239C90.1729 26.5701 89.8138 27.2109 89.8138 27.8995V41.3496C89.8138 42.0421 90.1729 42.6789 90.7567 43.0252L101.625 49.7803C102.209 50.1458 102.942 50.1493 103.533 49.7953L108.876 46.6018C109.43 46.2748 109.433 45.4488 108.876 45.1141L97.2983 38.1035V31.1981L102.912 27.8394L108.525 31.1981V36.0071C108.525 36.6496 109.05 36.7485 109.402 36.5331C110.817 35.679 115.081 33.1368 115.081 33.1368C115.654 32.7944 116.009 32.161 116.009 31.4762V27.8995C116.009 27.207 115.65 26.5701 115.067 26.2239L103.862 19.5064C103.566 19.3294 103.241 19.2434 102.912 19.2434ZM13.0978 19.2511C12.7685 19.2511 12.4396 19.3371 12.1477 19.5141L0.942869 26.2241C0.35908 26.574 0 27.2145 0 27.907V45.0765C0 45.9152 0.882526 46.4351 1.58607 46.0158L6.55623 43.0402C7.12879 42.694 7.48448 42.0644 7.48448 41.3796V31.2132L13.0978 27.8469L18.7112 31.2132V41.3796C18.7112 42.0644 19.0669 42.694 19.6395 43.0402L24.6096 46.0158C25.3132 46.439 26.1957 45.9152 26.1957 45.0765V27.907C26.1957 27.2145 25.8366 26.574 25.2528 26.2239L14.048 19.5139C13.7561 19.3369 13.4272 19.2511 13.0978 19.2511ZM72.9737 27.8396L78.5871 31.2058V34.6245V38.0434L72.9737 41.4097L67.3603 38.0434V31.2057L72.9737 27.8396ZM102.912 30.7926L99.703 32.7162V36.5558L102.912 38.4717L106.12 36.5556V32.716L102.912 30.7926ZM57.6539 46.1587C57.2689 46.1587 56.8797 46.2555 56.5429 46.4517L46.0179 52.7034C45.3256 53.0956 44.9069 53.8678 44.9069 54.6719V67.1602C44.9069 67.9642 45.3443 68.721 46.0179 69.1288L48.788 70.7519C50.1165 71.4251 50.6048 71.4281 51.2073 71.4281C53.1907 71.4281 54.321 70.2088 54.321 68.0543V55.7163C54.321 55.5278 54.1787 55.3933 54.014 55.3933H52.6837C52.5004 55.3933 52.3695 55.5471 52.3695 55.7163V68.0543C52.3695 68.9892 51.4085 69.9479 49.8405 69.1439L46.9608 67.4382C46.8672 67.3805 46.8 67.2642 46.8 67.1526V54.6644C46.8 54.5528 46.8522 54.4215 46.9608 54.3638L57.4858 48.1272C57.5981 48.0695 57.7249 48.0695 57.8147 48.1272L68.3471 54.3638C68.4556 54.4215 68.5079 54.5335 68.5079 54.6644V67.1526C68.5079 67.2835 68.4369 67.3955 68.3471 67.4532L57.8147 73.7124C57.7212 73.7701 57.5756 73.7701 57.4858 73.7124L54.7961 72.0668C54.725 72.0284 54.6114 72.0058 54.5403 72.0441C53.7956 72.4943 53.6465 72.5532 52.9542 72.7955C52.7708 72.8532 52.5216 72.9688 53.0492 73.2689L56.5429 75.4029C56.891 75.5914 57.2722 75.7035 57.6539 75.7035C58.0543 75.7035 58.4434 75.5918 58.7503 75.3879L69.2753 69.1287C69.9676 68.7363 70.3863 67.9641 70.3863 67.1601V54.6718C70.3863 53.8677 69.9489 53.1148 69.2753 52.7031L58.7503 46.4515C58.4228 46.2553 58.0389 46.1587 57.6539 46.1587ZM74.0701 51.922C72.996 51.922 72.0528 52.8147 72.0528 53.9958C72.0528 55.1384 72.9586 56.0772 74.0701 56.0772C75.1815 56.0772 76.0874 55.1384 76.0874 53.9958C76.0874 52.8147 75.1628 51.9027 74.0701 51.922ZM74.048 52.2526C74.9985 52.2526 75.7656 53.0225 75.7656 53.9958C75.7656 54.9499 74.9948 55.7385 74.048 55.7616C73.1162 55.7616 72.3596 54.9692 72.3596 53.9958C72.3596 53.0225 73.1199 52.2526 74.048 52.2526ZM73.3098 52.8161V55.153H73.741V54.2211H74.1432C74.3078 54.2211 74.3469 54.2931 74.3843 54.4239C74.3843 54.4432 74.4534 55.0487 74.4721 55.1603H74.9398C74.8875 55.0487 74.8489 54.729 74.8302 54.5366C74.7778 54.2365 74.7607 54.0299 74.4501 54.0106C74.6148 53.9529 74.8887 53.863 74.8887 53.4321C74.8887 52.8127 74.3652 52.8159 74.092 52.8159L73.3098 52.8161ZM73.741 53.1918H74.1065C74.2187 53.1918 74.4354 53.1881 74.4354 53.5074C74.4354 53.6382 74.3802 53.8494 74.0845 53.8456H73.741V53.1918ZM60.4751 55.1004C57.47 55.1004 55.6876 56.4171 55.6876 58.5869C55.6876 60.9645 57.473 61.6005 60.3508 61.9006C63.7937 62.2545 64.0638 62.7635 64.0638 63.456C64.0638 64.6717 63.1146 65.1767 60.8917 65.1767C58.1037 65.1767 57.4904 64.4662 57.2883 63.0427C57.2696 62.8927 57.1387 62.7797 56.974 62.7797H55.6072C55.4425 62.7797 55.3002 62.9143 55.3002 63.1028C55.3002 64.9187 56.263 67.0927 60.8697 67.0927C64.249 67.0889 66.1615 65.743 66.1615 63.3808C66.1615 61.0417 64.6295 60.4196 61.3887 59.9695C58.1105 59.5193 57.7853 59.2929 57.7853 58.5042C57.7853 57.8502 58.0538 56.9939 60.475 56.9939C62.6418 56.9939 63.4494 57.4811 63.7787 58.9776C63.8162 59.1276 63.9178 59.2181 64.0638 59.2181H65.4306C65.5204 59.2181 65.5974 59.1819 65.6498 59.1279C65.706 59.0548 65.7416 58.9798 65.7229 58.8874C65.5059 56.3021 63.8468 55.1004 60.4751 55.1004Z" fill="#0369A1"/>
</svg>
