<svg width="100" height="87" viewBox="0 0 100 87" fill="none" xmlns="http://www.w3.org/2000/svg">
<path d="M100 43.51C100 37.0382 91.704 30.905 78.9849 27.1016C81.9201 14.4369 80.6156 4.36095 74.8675 1.13504C73.5426 0.378347 71.9935 0.0199127 70.3017 0.0199127V4.46052C71.2393 4.46052 71.9935 4.63973 72.6254 4.97826C75.3975 6.53147 76.6001 12.4456 75.6625 20.0524C75.4382 21.9242 75.0713 23.8956 74.6229 25.9068C70.6278 24.951 66.2658 24.2142 61.6796 23.7363C58.9278 20.0524 56.0742 16.707 53.2002 13.7798C59.8451 7.74617 66.0823 4.4406 70.3221 4.4406V0C64.7167 0 57.3787 3.90295 49.9592 10.6734C42.5397 3.94278 35.2018 0.0796524 29.5964 0.0796524V4.52026C33.8157 4.52026 40.0734 7.80591 46.7183 13.7997C43.8647 16.7269 41.011 20.0524 38.3 23.7363C33.6934 24.2142 29.3314 24.951 25.3363 25.9268C24.8675 23.9355 24.521 22.0039 24.2764 20.152C23.3184 12.5452 24.5006 6.63104 27.2523 5.05791C27.8638 4.69947 28.6588 4.54017 29.5964 4.54017V0.0995651C27.8842 0.0995651 26.3351 0.457999 24.9898 1.21469C19.2621 4.4406 17.978 14.4967 20.9336 27.1215C8.2552 30.9448 0 37.0581 0 43.51C0 49.9817 8.29596 56.1149 21.0151 59.9183C18.0799 72.583 19.3844 82.659 25.1325 85.8849C26.4574 86.6416 28.0065 87 29.7187 87C35.3241 87 42.662 83.097 50.0815 76.3266C57.501 83.0572 64.839 86.9203 70.4443 86.9203C72.1565 86.9203 73.7057 86.5619 75.051 85.8052C80.7786 82.5793 82.0628 72.5232 79.1072 59.8984C91.7448 56.095 100 49.9618 100 43.51ZM73.4611 30.228C72.7069 32.7967 71.7693 35.4452 70.7093 38.0936C69.8736 36.5006 68.9971 34.9075 68.0391 33.3145C67.1015 31.7214 66.1027 30.1682 65.104 28.6548C67.9984 29.073 70.7909 29.5908 73.4611 30.228ZM64.1256 51.4353C62.5357 54.1236 60.905 56.6725 59.2132 59.0421C56.1761 59.301 53.0982 59.4404 50 59.4404C46.9221 59.4404 43.8443 59.301 40.8276 59.062C39.1358 56.6924 37.4847 54.1634 35.8948 51.4951C34.3457 48.8865 32.9393 46.238 31.6551 43.5697C32.9189 40.9013 34.3457 38.233 35.8744 35.6244C37.4643 32.9361 39.095 30.3873 40.7868 28.0176C43.8239 27.7588 46.9018 27.6194 50 27.6194C53.0779 27.6194 56.1557 27.7588 59.1724 27.9977C60.8642 30.3674 62.5153 32.8963 64.1052 35.5647C65.6543 38.1733 67.0607 40.8217 68.3449 43.49C67.0607 46.1584 65.6543 48.8267 64.1256 51.4353ZM70.7093 48.8466C71.81 51.515 72.7477 54.1833 73.5222 56.772C70.852 57.4092 68.0391 57.9469 65.1243 58.3651C66.1231 56.8318 67.1219 55.2586 68.0595 53.6457C68.9972 52.0526 69.8736 50.4397 70.7093 48.8466ZM50.0408 70.0938C48.1451 68.1822 46.2495 66.0515 44.3742 63.7217C46.2087 63.8013 48.084 63.8611 49.9796 63.8611C51.8956 63.8611 53.7913 63.8212 55.6461 63.7217C53.8117 66.0515 51.916 68.1822 50.0408 70.0938ZM34.8757 58.3651C31.9812 57.9469 29.1887 57.4292 26.5185 56.7919C27.2727 54.2232 28.2104 51.5747 29.2703 48.9263C30.106 50.5193 30.9825 52.1124 31.9405 53.7054C32.8985 55.2985 33.8769 56.8517 34.8757 58.3651ZM49.9389 16.9261C51.8345 18.8377 53.7301 20.9684 55.6054 23.2982C53.7709 23.2186 51.8956 23.1588 50 23.1588C48.084 23.1588 46.1883 23.1987 44.3335 23.2982C46.168 20.9684 48.0636 18.8377 49.9389 16.9261ZM34.8553 28.6548C33.8565 30.1881 32.8577 31.7613 31.9201 33.3742C30.9825 34.9673 30.106 36.5603 29.2703 38.1534C28.1696 35.485 27.232 32.8167 26.4574 30.228C29.1276 29.6107 31.9405 29.073 34.8553 28.6548ZM16.4085 53.5859C9.19283 50.5791 4.52507 46.6363 4.52507 43.51C4.52507 40.3836 9.19283 36.4209 16.4085 33.434C18.1614 32.6972 20.0775 32.0401 22.0546 31.4227C23.2165 35.3257 24.7452 39.388 26.6408 43.5498C24.7656 47.6917 23.2572 51.734 22.1158 55.6171C20.0978 54.9998 18.1818 54.3227 16.4085 53.5859ZM27.3746 82.0417C24.6025 80.4884 23.3999 74.5743 24.3375 66.9675C24.5618 65.0957 24.9287 63.1243 25.3771 61.1131C29.3722 62.0689 33.7342 62.8057 38.3204 63.2836C41.0722 66.9675 43.9258 70.3129 46.7998 73.2401C40.1549 79.2737 33.9177 82.5793 29.6779 82.5793C28.7607 82.5594 27.9861 82.3802 27.3746 82.0417ZM75.7236 66.8679C76.6816 74.4747 75.4994 80.3889 72.7476 81.962C72.1362 82.3204 71.3412 82.4797 70.4036 82.4797C66.1843 82.4797 59.9266 79.1941 53.2817 73.2003C56.1354 70.2731 58.989 66.9476 61.7 63.2637C66.3066 62.7858 70.6686 62.049 74.6637 61.0732C75.1325 63.0845 75.4994 65.016 75.7236 66.8679ZM83.5711 53.5859C81.8182 54.3227 79.9022 54.9799 77.925 55.5972C76.7631 51.6942 75.2344 47.6319 73.3388 43.4701C75.214 39.3282 76.7224 35.2859 77.8638 31.4028C79.8818 32.0201 81.7978 32.6972 83.5915 33.434C90.8072 36.4408 95.4749 40.3836 95.4749 43.51C95.4545 46.6363 90.7868 50.599 83.5711 53.5859Z" fill="#8A8117"/>
</svg>
