<?xml version="1.0" encoding="UTF-8" standalone="no"?>
<!-- Created with Inkscape (http://www.inkscape.org/) -->

<svg
   width="100mm"
   height="100mm"
   viewBox="0 0 100 100"
   version="1.1"
   id="svg11495"
   xml:space="preserve"
   inkscape:version="1.2.2 (732a01da63, 2022-12-09, custom)"
   sodipodi:docname="logo-css.svg"
   xmlns:inkscape="http://www.inkscape.org/namespaces/inkscape"
   xmlns:sodipodi="http://sodipodi.sourceforge.net/DTD/sodipodi-0.dtd"
   xmlns="http://www.w3.org/2000/svg"
   xmlns:svg="http://www.w3.org/2000/svg"><sodipodi:namedview
     id="namedview11497"
     pagecolor="#ffffff"
     bordercolor="#000000"
     borderopacity="0.25"
     inkscape:showpageshadow="2"
     inkscape:pageopacity="0.0"
     inkscape:pagecheckerboard="0"
     inkscape:deskcolor="#d1d1d1"
     inkscape:document-units="mm"
     showgrid="false"
     inkscape:zoom="0.99276681"
     inkscape:cx="-7.5546442"
     inkscape:cy="262.39797"
     inkscape:window-width="1920"
     inkscape:window-height="1016"
     inkscape:window-x="0"
     inkscape:window-y="0"
     inkscape:window-maximized="1"
     inkscape:current-layer="layer1" /><defs
     id="defs11492" /><g
     inkscape:label="Capa 1"
     inkscape:groupmode="layer"
     id="layer1"><path
       sodipodi:type="star"
       style="fill:none;stroke:#f0de00;stroke-width:1.49672451;fill-opacity:1;stroke-dasharray:none"
       id="path11796"
       inkscape:flatsided="true"
       sodipodi:sides="8"
       sodipodi:cx="0"
       sodipodi:cy="0"
       sodipodi:r1="141.42136"
       sodipodi:r2="130.6563"
       sodipodi:arg1="0.78539816"
       sodipodi:arg2="1.1780972"
       inkscape:rounded="0"
       inkscape:randomized="0"
       d="M 100,100 4.8047176e-7,141.42136 -100,100 -141.42136,4.804718e-7 -100,-100 -4.8047181e-7,-141.42136 100,-100 141.42136,-4.8047182e-7 Z"
       transform="matrix(0.35354981,0,0,0.35354981,50,50)" /><g
       style="fill:none"
       id="g14269"
       transform="matrix(0.53021768,0,0,0.49048488,13.543774,15.891248)"><path
         d="M 20.003651,128.13149 10.499843,11.984216 124,12.217624 113.95066,128.13149 67.678293,141.53 Z"
         fill="#1b73ba"
         id="path14254"
         style="fill:#f0de00;fill-opacity:0.788235;stroke-width:0.915324" /><path
         d="M 62.468,129.275 V 12.085 l 51.064,0.17 -9.106,104.85 z"
         fill="#1c88c7"
         id="path14256"
         style="fill:#8f8f00;fill-opacity:0.403922;stroke:none;stroke-opacity:0.689388" /><path
         d="M 100.851,27.064 H 22.298 l 2.128,15.318 h 37.276 l -36.68,15.745 2.127,14.808 H 81.192 L 79.234,93.615 60.936,97.19 44.341,92.935 43.064,81.19 H 27.83 l 2.042,24.426 32.681,9.106 31.32,-9.957 4,-47.745 H 64.765 L 100.85,42.042 Z"
         fill="#ffffff"
         id="path14258" /></g></g></svg>
