<?xml version="1.0" encoding="UTF-8" standalone="no"?>
<!-- Created with Inkscape (http://www.inkscape.org/) -->

<svg
   width="100mm"
   height="100mm"
   viewBox="0 0 100 100"
   version="1.1"
   id="svg11495"
   xml:space="preserve"
   inkscape:version="1.2.2 (732a01da63, 2022-12-09, custom)"
   sodipodi:docname="logo-git.svg"
   xmlns:inkscape="http://www.inkscape.org/namespaces/inkscape"
   xmlns:sodipodi="http://sodipodi.sourceforge.net/DTD/sodipodi-0.dtd"
   xmlns="http://www.w3.org/2000/svg"
   xmlns:svg="http://www.w3.org/2000/svg"><sodipodi:namedview
     id="namedview11497"
     pagecolor="#ffffff"
     bordercolor="#000000"
     borderopacity="0.25"
     inkscape:showpageshadow="2"
     inkscape:pageopacity="0.0"
     inkscape:pagecheckerboard="0"
     inkscape:deskcolor="#d1d1d1"
     inkscape:document-units="mm"
     showgrid="false"
     inkscape:zoom="1.9855336"
     inkscape:cx="287.58012"
     inkscape:cy="225.88386"
     inkscape:window-width="1245"
     inkscape:window-height="1016"
     inkscape:window-x="20"
     inkscape:window-y="20"
     inkscape:window-maximized="0"
     inkscape:current-layer="layer1"
     showguides="true" /><defs
     id="defs11492" /><g
     inkscape:label="Capa 1"
     inkscape:groupmode="layer"
     id="layer1"><path
       sodipodi:type="star"
       style="fill:none;stroke:#f0de00;stroke-width:1.49672451;fill-opacity:1;stroke-dasharray:none"
       id="path11796"
       inkscape:flatsided="true"
       sodipodi:sides="8"
       sodipodi:cx="0"
       sodipodi:cy="0"
       sodipodi:r1="141.42136"
       sodipodi:r2="130.6563"
       sodipodi:arg1="0.78539816"
       sodipodi:arg2="1.1780972"
       inkscape:rounded="0"
       inkscape:randomized="0"
       d="M 100,100 4.8047176e-7,141.42136 -100,100 -141.42136,4.804718e-7 -100,-100 -4.8047181e-7,-141.42136 100,-100 141.42136,-4.8047182e-7 Z"
       transform="matrix(0.35354981,0,0,0.35354981,50,50)" /><path
       d="M 83.616051,47.603767 53.053334,17.042183 c -1.759028,-1.76015 -4.61372,-1.76015 -6.374934,0 l -6.346498,6.346602 8.050837,8.05097 c 1.870862,-0.632199 4.016258,-0.20809 5.507588,1.283267 1.498441,1.500926 1.919536,3.664677 1.272035,5.541586 l 7.758805,7.759208 c 1.877151,-0.646692 4.043054,-0.228326 5.542314,1.273422 2.095356,2.09457 2.095356,5.489359 0,7.585296 -2.0959,2.096212 -5.490634,2.096212 -7.58763,0 -1.576098,-1.577763 -1.965474,-3.892454 -1.167581,-5.834169 l -7.235718,-7.235839 -8.41e-4,19.041722 a 5.4195419,5.419632 0 0 1 1.418598,1.01447 c 2.095356,2.094572 2.095356,5.489634 0,7.587213 -2.095903,2.095116 -5.492277,2.095116 -7.585172,0 -2.095357,-2.097579 -2.095357,-5.492368 0,-7.586938 a 5.3741512,5.3742406 0 0 1 1.75574,-1.170607 V 41.4792 a 5.2986823,5.2987704 0 0 1 -1.75572,-1.170608 c -1.587582,-1.58542 -1.969301,-3.914877 -1.155823,-5.864249 L 37.213069,26.507124 16.256777,47.462397 c -1.760942,1.76179 -1.760942,4.616805 0,6.377228 l 30.563264,30.56213 c 1.759574,1.76042 4.613719,1.76042 6.375479,0 L 83.615779,53.981542 c 1.760389,-1.760971 1.760389,-4.617625 0,-6.377775"
       fill="#de4c36"
       id="path18590"
       style="stroke-width:0.27344;fill:#efde00;fill-opacity:0.7019608" /></g></svg>
