<svg width="100" height="100" viewBox="0 0 100 100" fill="none" xmlns="http://www.w3.org/2000/svg">
<path d="M69.3083 69.7878C72.9294 69.4582 75.7379 66.0969 75.5546 62.0809C75.3629 58.0649 72.2418 54.8398 68.4374 54.8398H68.1832C64.2537 54.9761 61.191 58.4604 61.316 62.6126C61.441 64.7173 62.2577 66.4309 63.3745 67.6787C59.0075 76.6334 52.4528 83.2154 42.5229 88.7473C35.8432 92.4294 28.7885 93.8178 21.9213 92.8292C16.1792 91.9768 11.6871 89.2702 8.93694 84.929C4.81995 78.3426 4.44492 71.2378 7.87435 64.1285C10.3787 58.992 14.1207 55.2397 16.6209 53.3943C15.9958 51.685 15.2458 48.7895 14.8707 46.6189C-3.61403 60.5782 -1.73472 79.6652 3.88238 88.6858C8.06604 95.2678 16.6209 99.4771 25.9841 99.4771C28.4801 99.4771 31.1053 99.2838 33.6638 98.6247C49.8984 95.3337 62.1952 85.0653 69.2499 69.924L69.3083 69.7878ZM91.5933 53.3284C81.9217 41.3463 67.6831 34.7643 51.4486 34.7643H49.3234C48.2691 32.3301 45.8356 30.8142 43.0854 30.8142H42.8979C38.9684 30.8142 35.9057 34.3732 36.0349 38.5166C36.1599 42.4623 39.3435 45.7577 43.1521 45.7577H43.4604C46.2732 45.6259 48.7067 43.7805 49.7026 41.1486H52.0153C61.6368 41.1486 70.7459 44.11 79.0507 49.9011C85.4137 54.3126 89.9765 60.1037 92.5351 67.0196C94.7769 72.6789 94.6561 78.2108 92.3475 82.8244C88.7889 90.0611 82.7926 93.8837 74.867 93.8837C69.8708 93.8837 65.0038 92.236 62.5036 91.0541C61.0076 92.3635 58.5074 94.5384 56.6948 95.8566C62.1869 98.4841 67.7456 100 73.1127 100C85.2887 100 94.3352 92.7633 97.773 85.7815C101.515 77.8813 101.207 64.5854 91.6517 53.1965L91.5933 53.3284ZM27.0425 72.1517C27.1633 76.1018 30.3469 79.3928 34.1597 79.3928H34.4097C38.4059 79.261 41.4645 75.7766 41.2769 71.6244C41.2769 67.6743 38.0309 64.3877 34.2222 64.3877H33.968C33.718 64.3877 33.3472 64.3877 33.0305 64.5151C27.8509 55.2968 25.6632 45.4194 26.48 34.7643C26.9758 26.7323 29.476 19.7504 33.968 13.9593C37.7142 9.02061 44.7689 6.58201 49.5776 6.45459C63.0619 6.18656 68.6832 23.9026 69.1166 30.946L75.3587 32.9188C73.9211 11.3274 61.191 0 49.015 0C37.5891 0 27.0425 8.75698 22.7922 21.5959C16.9876 38.7144 20.7962 55.1694 27.9134 68.3378C27.2925 69.1946 26.9175 70.7061 27.0425 72.1517Z" fill="#8A8117"/>
</svg>
