<svg width="100" height="100" viewBox="0 0 100 100" fill="none" xmlns="http://www.w3.org/2000/svg">
<path d="M49.5912 0.0431277C24.2331 0.0431277 25.8367 11.0768 25.8367 11.0768V22.5417H49.9519V26.1357H16.2328C16.2328 26.1357 0 24.1231 0 50.018C0 75.913 14.3327 74.8599 14.3327 74.8599H22.608V62.7804C22.608 62.7804 22.1437 48.3576 36.5371 48.3576H60.6881C60.6881 48.3576 74.16 48.5732 74.16 35.2322V13.341C74.16 13.341 76.203 0 49.7234 0L49.5912 0.0431277ZM36.2621 7.72356C37.1194 7.70179 37.9639 7.93635 38.6888 8.39756C39.4136 8.85878 39.9863 9.52594 40.3343 10.3147C40.6823 11.1034 40.7901 11.9783 40.644 12.8286C40.4979 13.679 40.1045 14.4667 39.5135 15.092C38.9225 15.7174 38.1605 16.1524 37.3239 16.3419C36.4872 16.5315 35.6135 16.4671 34.8132 16.1569C34.0129 15.8468 33.322 15.3048 32.8278 14.5995C32.3336 13.8942 32.0584 13.0572 32.037 12.1945V12.1226C32.037 10.9655 32.4938 9.85568 33.3069 9.03744C34.12 8.21919 35.2229 7.7595 36.3728 7.7595L36.2621 7.72356Z" fill="url(#paint0_linear_11_598)"/>
<path d="M50.3016 99.9928C75.6597 99.9928 74.0561 88.9232 74.0561 88.9232V77.4942H49.9445V73.9002H83.7672C83.7672 73.9002 100 75.726 100 49.982C100 24.238 85.6673 25.1401 85.6673 25.1401H77.2848V37.0614C77.2848 37.0614 77.7491 51.4843 63.3557 51.4843H39.194C39.194 51.4843 25.7114 51.2794 25.7114 64.6204V86.659C25.7114 86.659 23.6684 100 50.148 100H50.2909L50.3016 99.9928ZM63.6307 92.2764C62.7734 92.2982 61.9289 92.0636 61.2041 91.6024C60.4792 91.1412 59.9066 90.4741 59.5586 89.6853C59.2105 88.8966 59.1027 88.0217 59.2488 87.1714C59.3949 86.321 59.7884 85.5333 60.3793 84.908C60.9703 84.2826 61.7323 83.8476 62.569 83.6581C63.4056 83.4685 64.2793 83.5329 65.0796 83.843C65.8799 84.1532 66.5708 84.6952 67.065 85.4005C67.5592 86.1058 67.8344 86.9427 67.8559 87.8055V87.9133C67.8559 89.0705 67.3991 90.1802 66.5859 90.9985C65.7728 91.8167 64.6699 92.2764 63.52 92.2764H63.6307Z" fill="url(#paint1_linear_11_598)"/>
<defs>
<linearGradient id="paint0_linear_11_598" x1="9.8831" y1="9.8293" x2="94.2401" y2="96.1391" gradientUnits="userSpaceOnUse">
<stop stop-color="#1E486B"/>
<stop offset="0.730466" stop-color="#366994"/>
</linearGradient>
<linearGradient id="paint1_linear_11_598" x1="37.9529" y1="40.866" x2="120.366" y2="113.52" gradientUnits="userSpaceOnUse">
<stop stop-color="#8A8117"/>
<stop offset="1" stop-color="#FFC331"/>
</linearGradient>
</defs>
</svg>
