<svg width="136" height="89" viewBox="0 0 136 89" fill="none" xmlns="http://www.w3.org/2000/svg">
<path d="M35.1514 35.7898C36.3161 35.639 37.4982 35.7274 38.6295 36.0499C39.7607 36.3725 40.8187 36.9227 41.7423 37.6689C42.3383 38.6144 42.7183 39.6868 42.8537 40.8055C42.9891 41.9241 42.8764 43.0598 42.5242 44.1271C42.2152 46.7545 40.9815 49.1741 39.0569 50.9276C36.7358 52.4676 33.9922 53.1898 31.2384 52.9856H25.9505L29.1988 35.8248L35.1514 35.7898ZM14 70.3604H22.6872L24.7457 59.4671H32.1751C34.9122 59.539 37.6436 59.1755 40.2731 58.3895C42.4326 57.6551 44.4066 56.4352 46.0519 54.818C48.8976 52.1824 50.8154 48.65 51.506 44.7729C52.051 42.8432 52.147 40.8083 51.7861 38.8333C51.4251 36.8582 50.6175 34.9985 49.4286 33.405C47.9952 31.9419 46.2691 30.8187 44.3707 30.1138C42.4723 29.4089 40.4474 29.1393 38.4374 29.3239H21.7694L14 70.3604Z" fill="#8A8117"/>
<path d="M58.1206 18H66.8553L64.7395 28.9062H72.5101C76.0801 28.5256 79.6668 29.4492 82.6298 31.512C83.6101 32.6466 84.2803 34.0236 84.5731 35.5051C84.8659 36.9865 84.771 38.5203 84.2979 39.9526L80.6479 59.0735H71.8099L75.2839 40.8952C75.5256 40.2016 75.6119 39.4618 75.5364 38.7299C75.4609 37.998 75.2256 37.2925 74.8477 36.6652C73.5813 35.7401 72.0159 35.3417 70.4708 35.5512H63.4961L59.0006 59.0929H50.2468L58.1206 18Z" fill="#8A8117"/>
<path d="M103.549 35.7806C104.714 35.6297 105.896 35.7181 107.027 36.0407C108.159 36.3633 109.217 36.9138 110.14 37.6601C110.736 38.6059 111.116 39.6786 111.252 40.7975C111.387 41.9165 111.274 43.0525 110.922 44.12C110.613 46.7482 109.379 49.1684 107.455 50.9224C105.129 52.4661 102.38 53.1886 99.6211 52.981H94.3371L97.5778 35.7961L103.549 35.7806ZM82.3979 70.3604H91.085L93.1435 59.4642H100.577C103.319 59.5377 106.055 59.174 108.69 58.3863C110.849 57.6517 112.823 56.4314 114.469 54.8139C117.307 52.1746 119.218 48.6417 119.904 44.766C120.449 42.8358 120.545 40.8004 120.184 38.8248C119.823 36.8492 119.015 34.989 117.826 33.3951C116.393 31.9342 114.667 30.8131 112.769 30.1101C110.871 29.4071 108.848 29.139 106.839 29.3246H90.1446L82.3979 70.3604Z" fill="#8A8117"/>
<path d="M133.632 44.3333C133.632 55.6804 126.595 66.2151 114.675 74.0077C102.772 81.7887 86.211 86.6667 67.8161 86.6667C49.4212 86.6667 32.8598 81.7887 20.9572 74.0077C9.03695 66.2151 2 55.6804 2 44.3333C2 32.9863 9.03695 22.4516 20.9572 14.659C32.8598 6.87795 49.4212 2 67.8161 2C86.211 2 102.772 6.87795 114.675 14.659C126.595 22.4516 133.632 32.9863 133.632 44.3333Z" stroke="#8A8117" stroke-width="4"/>
</svg>
