<?xml version="1.0" encoding="UTF-8" standalone="no"?>
<!-- Created with Inkscape (http://www.inkscape.org/) -->

<svg
   width="100mm"
   height="100mm"
   viewBox="0 0 100 100"
   version="1.1"
   id="svg11495"
   xml:space="preserve"
   inkscape:version="1.2.2 (732a01da63, 2022-12-09, custom)"
   sodipodi:docname="logo-redux.svg"
   xmlns:inkscape="http://www.inkscape.org/namespaces/inkscape"
   xmlns:sodipodi="http://sodipodi.sourceforge.net/DTD/sodipodi-0.dtd"
   xmlns="http://www.w3.org/2000/svg"
   xmlns:svg="http://www.w3.org/2000/svg"><sodipodi:namedview
     id="namedview11497"
     pagecolor="#ffffff"
     bordercolor="#000000"
     borderopacity="0.25"
     inkscape:showpageshadow="2"
     inkscape:pageopacity="0.0"
     inkscape:pagecheckerboard="0"
     inkscape:deskcolor="#d1d1d1"
     inkscape:document-units="mm"
     showgrid="false"
     inkscape:zoom="1.9855336"
     inkscape:cx="166.454"
     inkscape:cy="266.67894"
     inkscape:window-width="1245"
     inkscape:window-height="1016"
     inkscape:window-x="26"
     inkscape:window-y="23"
     inkscape:window-maximized="0"
     inkscape:current-layer="g21194"
     showguides="true"><sodipodi:guide
       position="36.803511,77.731751"
       orientation="0,-1"
       id="guide20819"
       inkscape:locked="false" /><sodipodi:guide
       position="24.021391,45.648922"
       orientation="1,0"
       id="guide20821"
       inkscape:locked="false" /><sodipodi:guide
       position="75.794287,77.731751"
       orientation="1,0"
       id="guide20823"
       inkscape:locked="false" /><sodipodi:guide
       position="51.170123,20.846215"
       orientation="0,-1"
       id="guide20825"
       inkscape:locked="false" /></sodipodi:namedview><defs
     id="defs11492"><style
       id="style21292">.cls-1{fill:none;}</style></defs><g
     inkscape:label="Capa 1"
     inkscape:groupmode="layer"
     id="layer1"><path
       sodipodi:type="star"
       style="fill:none;stroke:#f0de00;stroke-width:1.49672451;fill-opacity:1;stroke-dasharray:none"
       id="path11796"
       inkscape:flatsided="true"
       sodipodi:sides="8"
       sodipodi:cx="0"
       sodipodi:cy="0"
       sodipodi:r1="141.42136"
       sodipodi:r2="130.6563"
       sodipodi:arg1="0.78539816"
       sodipodi:arg2="1.1780972"
       inkscape:rounded="0"
       inkscape:randomized="0"
       d="M 100,100 4.8047176e-7,141.42136 -100,100 -141.42136,4.804718e-7 -100,-100 -4.8047181e-7,-141.42136 100,-100 141.42136,-4.8047182e-7 Z"
       transform="matrix(0.35354981,0,0,0.35354981,50,50)" /><g
       id="g21194"
       transform="matrix(2.5804644,0,0,2.0316263,8.4431278,18.204996)"><g
         style="mix-blend-mode:normal;fill:#f0de00;fill-opacity:0.478"
         id="g26099"
         transform="matrix(0.91219264,0,0,1.2302825,5.0294598,1.2359951)"><path
           d="m 16.633,16.504 c 0.869,-0.075 1.543,-0.84 1.499,-1.754 -0.046,-0.914 -0.795,-1.648 -1.708,-1.648 h -0.061 c -0.943,0.031 -1.678,0.824 -1.648,1.769 0.03,0.479 0.226,0.869 0.494,1.153 -1.048,2.038 -2.621,3.536 -5.004,4.795 C 8.602,21.657 6.909,21.973 5.261,21.748 3.883,21.554 2.805,20.938 2.145,19.95 1.157,18.451 1.067,16.834 1.89,15.216 c 0.601,-1.169 1.499,-2.023 2.099,-2.443 -0.15,-0.389 -0.33,-1.048 -0.42,-1.542 -4.436,3.177 -3.985,7.521 -2.637,9.574 1.004,1.498 3.057,2.456 5.304,2.456 0.599,0 1.229,-0.044 1.843,-0.194 3.896,-0.749 6.847,-3.086 8.54,-6.532 z m 5.348,-3.746 C 19.66,10.031 16.243,8.533 12.347,8.533 h -0.51 C 11.584,7.979 11,7.634 10.34,7.634 h -0.045 c -0.943,0 -1.678,0.81 -1.647,1.753 0.03,0.898 0.794,1.648 1.708,1.648 h 0.074 c 0.675,-0.03 1.259,-0.45 1.498,-1.049 h 0.555 c 2.309,0 4.495,0.674 6.488,1.992 1.527,1.004 2.622,2.322 3.236,3.896 0.538,1.288 0.509,2.547 -0.045,3.597 -0.854,1.647 -2.293,2.517 -4.195,2.517 -1.199,0 -2.367,-0.375 -2.967,-0.644 -0.359,0.298 -0.959,0.793 -1.394,1.093 1.318,0.598 2.652,0.943 3.94,0.943 2.922,0 5.093,-1.647 5.918,-3.236 0.898,-1.798 0.824,-4.824 -1.469,-7.416 z M 6.49,17.042 c 0.029,0.899 0.793,1.648 1.708,1.648 h 0.06 c 0.959,-0.03 1.693,-0.823 1.648,-1.768 0,-0.899 -0.779,-1.647 -1.693,-1.647 H 8.152 c -0.06,0 -0.149,0 -0.225,0.029 C 6.684,13.206 6.159,10.958 6.355,8.533 6.474,6.705 7.074,5.116 8.152,3.798 9.051,2.674 10.744,2.119 11.898,2.09 c 3.236,-0.061 4.585,3.971 4.689,5.574 l 1.498,0.449 C 17.74,3.199 14.685,0.621 11.763,0.621 9.021,0.621 6.49,2.614 5.47,5.536 4.077,9.432 4.991,13.177 6.699,16.174 6.55,16.369 6.46,16.713 6.49,17.042 Z"
           id="path26090"
           style="fill:#f0de00;fill-opacity:0.478" /></g></g></g></svg>
