<svg width="86" height="100" viewBox="0 0 86 100" fill="none" xmlns="http://www.w3.org/2000/svg">
<path d="M7.68348 71.6133C11.3116 72.7563 18.2308 74.7923 22.0433 75.4011C28.8989 76.4966 35.8678 77.0357 42.8505 77.0105C49.833 77.0368 56.8019 76.499 63.6576 75.4046C67.4701 74.7958 75.1328 72.3902 78.761 71.2473C86.7776 68.6644 85.6991 64.5423 85.6991 62.8902V50.8462C83.3823 51.9978 80.9473 52.9786 78.4222 53.7772C67.007 57.116 54.9581 58.7322 42.8505 58.5487C30.7416 58.7265 18.6927 57.1043 7.27877 53.7595C4.75474 52.9588 2.3199 51.9781 0.00185467 50.8284V62.8831C0.00185467 64.5387 -0.324566 69.0197 7.68348 71.6133Z" fill="#8A8117"/>
<path d="M42.8994 100C66.5536 100 85.748 93.8039 85.748 86.1654V76.086C83.6404 77.1355 81.4325 78.041 79.1463 78.7933L78.471 79.0171C67.058 82.3658 55.009 83.9916 42.8994 83.8169C30.7893 83.9966 18.7392 82.3707 7.32769 79.0171C7.09545 78.946 6.87181 78.8643 6.65247 78.7933C4.36629 78.041 2.15837 77.1355 0.0507812 76.086V86.1654C0.0507812 93.8039 19.2451 100 42.8994 100Z" fill="#8A8117"/>
<path d="M42.8505 27.6693C66.5151 27.6693 85.6991 21.4753 85.6991 13.8346C85.6991 6.19398 66.5151 0 42.8505 0C19.1859 0 0.00189209 6.19398 0.00189209 13.8346C0.00189209 21.4753 19.1859 27.6693 42.8505 27.6693Z" fill="#8A8117"/>
<path d="M7.68537 47.0053C11.3135 48.1483 18.2327 50.1843 22.0452 50.793C28.9008 51.8886 35.8697 52.4277 42.8524 52.4025C49.8349 52.4287 56.8038 51.891 63.6595 50.7966C67.472 50.1878 75.1347 47.7822 78.7629 46.6392C86.7795 44.0564 85.701 39.9342 85.701 38.2822V26.2382C83.3842 27.3898 80.9492 28.3706 78.4241 29.1692C67.0088 32.508 54.96 34.1242 42.8524 33.9407C30.7435 34.1185 18.6946 32.4963 7.28066 29.1515C4.75663 28.3508 2.32179 27.3701 0.00374676 26.2204V38.2751C0.00374676 39.9307 -0.322673 44.4117 7.68537 47.0053Z" fill="#8A8117"/>
</svg>
