<?xml version="1.0" encoding="UTF-8" standalone="no"?>
<!-- Created with Inkscape (http://www.inkscape.org/) -->

<svg
   width="100mm"
   height="100mm"
   viewBox="0 0 100 100"
   version="1.1"
   id="svg11495"
   xml:space="preserve"
   inkscape:version="1.2.2 (732a01da63, 2022-12-09, custom)"
   sodipodi:docname="logo-node.svg"
   xmlns:inkscape="http://www.inkscape.org/namespaces/inkscape"
   xmlns:sodipodi="http://sodipodi.sourceforge.net/DTD/sodipodi-0.dtd"
   xmlns="http://www.w3.org/2000/svg"
   xmlns:svg="http://www.w3.org/2000/svg"><sodipodi:namedview
     id="namedview11497"
     pagecolor="#ffffff"
     bordercolor="#000000"
     borderopacity="0.25"
     inkscape:showpageshadow="2"
     inkscape:pageopacity="0.0"
     inkscape:pagecheckerboard="0"
     inkscape:deskcolor="#d1d1d1"
     inkscape:document-units="mm"
     showgrid="false"
     inkscape:zoom="1.9855336"
     inkscape:cx="294.12748"
     inkscape:cy="267.18259"
     inkscape:window-width="1920"
     inkscape:window-height="1016"
     inkscape:window-x="0"
     inkscape:window-y="0"
     inkscape:window-maximized="1"
     inkscape:current-layer="g21194"
     showguides="true"><sodipodi:guide
       position="36.803511,77.731751"
       orientation="0,-1"
       id="guide20819"
       inkscape:locked="false" /><sodipodi:guide
       position="24.021391,45.648922"
       orientation="1,0"
       id="guide20821"
       inkscape:locked="false" /><sodipodi:guide
       position="75.794287,77.731751"
       orientation="1,0"
       id="guide20823"
       inkscape:locked="false" /><sodipodi:guide
       position="51.170123,20.846215"
       orientation="0,-1"
       id="guide20825"
       inkscape:locked="false" /></sodipodi:namedview><defs
     id="defs11492"><style
       id="style21292">.cls-1{fill:none;}</style></defs><g
     inkscape:label="Capa 1"
     inkscape:groupmode="layer"
     id="layer1"><path
       sodipodi:type="star"
       style="fill:none;stroke:#f0de00;stroke-width:1.49672451;fill-opacity:1;stroke-dasharray:none"
       id="path11796"
       inkscape:flatsided="true"
       sodipodi:sides="8"
       sodipodi:cx="0"
       sodipodi:cy="0"
       sodipodi:r1="141.42136"
       sodipodi:r2="130.6563"
       sodipodi:arg1="0.78539816"
       sodipodi:arg2="1.1780972"
       inkscape:rounded="0"
       inkscape:randomized="0"
       d="M 100,100 4.8047176e-7,141.42136 -100,100 -141.42136,4.804718e-7 -100,-100 -4.8047181e-7,-141.42136 100,-100 141.42136,-4.8047182e-7 Z"
       transform="matrix(0.35354981,0,0,0.35354981,50,50)" /><g
       id="g21194"
       transform="matrix(2.5804644,0,0,2.0316263,8.4431278,18.204996)"><g
         style="fill:#f0de00;fill-opacity:0.48661494"
         id="g27607"
         transform="matrix(0.87013198,0,0,1.0590566,2.3927049,-0.98978373)"><path
           d="M 21.300781,6 C 21.143781,6 21,6.1257812 21,6.3007812 v 5.4960938 l -1.246094,-0.726563 c -0.078,-0.046 -0.165906,-0.06836 -0.253906,-0.06836 -0.088,0 -0.175906,0.02236 -0.253906,0.06836 l -2.994141,1.746094 C 16.095953,12.906406 16,13.072953 16,13.251953 v 3.496094 c 0,0.18 0.09595,0.345547 0.251953,0.435547 l 2.994141,1.746094 c 0.078,0.046 0.165906,0.06836 0.253906,0.06836 0.088,0 0.175906,-0.02236 0.253906,-0.06836 l 2.994141,-1.746094 C 22.904047,17.093594 23,16.927047 23,16.748047 V 15 13.251953 7.2304688 c 0,-0.178 -0.09505,-0.3416407 -0.248047,-0.4316407 L 21.449219,6.0410156 C 21.400219,6.0130156 21.350781,6 21.300781,6 Z M 11.5,11.001953 c -0.08775,0 -0.175406,0.02286 -0.253906,0.06836 L 8.2519531,12.816406 C 8.0959531,12.906406 8,13.072953 8,13.251953 v 3.496094 c 0,0.18 0.095953,0.345547 0.2519531,0.435547 l 2.9941409,1.746094 c 0.157,0.091 0.350812,0.091 0.507812,0 l 2.994141,-1.746094 C 14.904047,17.093594 15,16.927047 15,16.748047 v -3.496094 c 0,-0.18 -0.09595,-0.345547 -0.251953,-0.435547 l -2.994141,-1.746094 c -0.0785,-0.0455 -0.166156,-0.06836 -0.253906,-0.06836 z m 16,0 c -0.088,0 -0.175906,0.02236 -0.253906,0.06836 l -2.994141,1.746094 C 24.095953,12.906406 24,13.072953 24,13.251953 v 3.496094 c 0,0.18 0.09595,0.345547 0.251953,0.435547 l 2.904297,1.755859 c 0.156,0.095 0.351766,0.09591 0.509766,0.0039 l 1.427734,-0.830078 c 0.148,-0.085 0.149,-0.299719 0,-0.386719 L 26,15.904297 v -1.794922 l 1.5,-0.873047 1.5,0.873047 v 1.25 c 0,0.167 0.140375,0.192719 0.234375,0.136719 0.378,-0.222 1.517578,-0.882813 1.517578,-0.882813 C 30.904953,14.524281 31,14.359641 31,14.181641 v -0.929688 c 0,-0.18 -0.09595,-0.345547 -0.251953,-0.435547 l -2.994141,-1.746094 c -0.079,-0.046 -0.165906,-0.06836 -0.253906,-0.06836 z m -24,0.002 c -0.088,0 -0.1759063,0.02236 -0.2539062,0.06836 l -2.99414068,1.74414 C 0.09595312,12.907406 0,13.073906 0,13.253906 v 4.462891 c 0,0.218 0.23582812,0.353141 0.42382812,0.244141 L 1.7519531,17.1875 C 1.9049531,17.0975 2,16.933859 2,16.755859 v -2.642578 l 1.5,-0.875 1.5,0.875 v 2.642578 c 0,0.178 0.095047,0.341641 0.2480469,0.431641 l 1.328125,0.773438 C 6.7641719,18.070938 7,17.934797 7,17.716797 v -4.462891 c 0,-0.18 -0.095953,-0.3465 -0.2519531,-0.4375 L 3.7539062,11.072266 C 3.6759063,11.026266 3.588,11.003906 3.5,11.003906 Z m 16,2.232422 1.5,0.875 V 15 15.888672 l -1.5,0.875 -1.5,-0.875 v -1.777344 z m 8,0.767578 -0.857422,0.5 V 15.502 L 27.5,16 28.357422,15.501953 v -0.998047 z m -12.09375,3.994141 c -0.102875,0 -0.206875,0.02517 -0.296875,0.07617 l -2.8125,1.625 C 12.111875,19.801219 12,20.001938 12,20.210938 v 3.246093 c 0,0.209 0.116875,0.405719 0.296875,0.511719 l 0.740234,0.421875 c 0.355,0.175 0.485485,0.175781 0.646485,0.175781 0.53,0 0.832031,-0.316953 0.832031,-0.876953 v -3.207031 c 0,-0.049 -0.03803,-0.08398 -0.08203,-0.08398 h -0.355469 c -0.049,0 -0.08398,0.03998 -0.08398,0.08398 v 3.207031 c 0,0.243 -0.256782,0.492203 -0.675782,0.283203 l -0.769531,-0.443359 c -0.025,-0.015 -0.04297,-0.04522 -0.04297,-0.07422 v -3.246094 c 0,-0.029 0.01397,-0.06312 0.04297,-0.07813 l 2.8125,-1.621093 c 0.03,-0.015 0.06389,-0.015 0.08789,0 l 2.814453,1.621093 c 0.029,0.015 0.04297,0.04412 0.04297,0.07813 v 3.246094 c 0,0.034 -0.01897,0.06312 -0.04297,0.07813 l -2.814453,1.626953 c -0.025,0.015 -0.06389,0.015 -0.08789,0 l -0.71875,-0.427734 c -0.019,-0.01 -0.04936,-0.01586 -0.06836,-0.0059 -0.199,0.117001 -0.238828,0.132313 -0.423828,0.195313 -0.049,0.015 -0.11561,0.04505 0.02539,0.123047 l 0.933594,0.554687 c 0.093,0.049 0.194875,0.07813 0.296875,0.07813 0.107,0 0.210969,-0.02903 0.292969,-0.08203 l 2.8125,-1.626953 c 0.185,-0.102 0.296875,-0.302719 0.296875,-0.511719 v -3.246093 c 0,-0.209 -0.116875,-0.404719 -0.296875,-0.511719 l -2.8125,-1.625 c -0.0875,-0.051 -0.190094,-0.07617 -0.292969,-0.07617 z m 4.386719,1.498047 c -0.287,0 -0.539063,0.232062 -0.539063,0.539062 0,0.297 0.242063,0.541016 0.539063,0.541016 0.297,0 0.539062,-0.244016 0.539062,-0.541016 0,-0.307 -0.247062,-0.544062 -0.539062,-0.539062 z m -0.0059,0.08594 c 0.254,0 0.458985,0.200125 0.458985,0.453125 0,0.248 -0.205985,0.452985 -0.458985,0.458985 -0.249,0 -0.451171,-0.205985 -0.451171,-0.458985 0,-0.253 0.203171,-0.453125 0.451171,-0.453125 z m -0.197265,0.146485 v 0.607422 h 0.115234 V 20.09375 H 19.8125 c 0.044,0 0.05445,0.01873 0.06445,0.05273 0,0.005 0.01844,0.162407 0.02344,0.191407 h 0.125 c -0.014,-0.029 -0.0243,-0.11211 -0.0293,-0.16211 -0.014,-0.078 -0.01856,-0.131719 -0.101563,-0.136719 0.044,-0.015 0.117188,-0.03839 0.117188,-0.15039 0,-0.161 -0.139891,-0.160156 -0.212891,-0.160156 z m 0.115234,0.09766 h 0.09766 c 0.03,0 0.08789,-9.69e-4 0.08789,0.08203 0,0.034 -0.01475,0.08889 -0.09375,0.08789 h -0.0918 z m -3.544922,0.496094 c -0.803,0 -1.279297,0.34225 -1.279297,0.90625 0,0.618 0.477094,0.783328 1.246094,0.861328 0.92,0.092 0.992188,0.224297 0.992188,0.404297 0,0.316 -0.253657,0.447265 -0.847657,0.447265 -0.745,0 -0.90889,-0.184687 -0.96289,-0.554687 -0.005,-0.039 -0.03998,-0.06836 -0.08399,-0.06836 H 14.85933 c -0.044,0 -0.08203,0.03498 -0.08203,0.08398 0,0.472 0.257281,1.037109 1.488281,1.037109 0.903,-0.001 1.414063,-0.350844 1.414063,-0.964844 0,-0.608 -0.409391,-0.769718 -1.275391,-0.886718 -0.876,-0.117 -0.962891,-0.17586 -0.962891,-0.38086 0,-0.17 0.07175,-0.392578 0.71875,-0.392578 0.579,0 0.794813,0.126625 0.882813,0.515625 0.01,0.039 0.03717,0.0625 0.07617,0.0625 h 0.365234 c 0.024,0 0.04459,-0.0094 0.05859,-0.02344 0.015,-0.019 0.02453,-0.0385 0.01953,-0.0625 -0.058,-0.672 -0.501344,-0.984375 -1.402344,-0.984375 z"
           id="path27598"
           style="fill-opacity:0.48661494;fill:#f0de00" /></g></g></g></svg>
